<svg id="Layer_2" data-name="Layer 2" xmlns="http://www.w3.org/2000/svg" viewBox="0 0 558.55 558.55">
  <path fill="currentColor" d="M391.79,452.31H172.12c-3.1,0-6.32.62-9.27-1.51a11.6,11.6,0,0,1-.15-1.17,422.59,422.59,0,0,1,.29-46.95c.67-9.8,1.38-19.61,2.54-29.36,4-33.42,12-65.77,26.83-96.18,9.24-18.93,20.48-36.66,32.61-53.85a428.28,428.28,0,0,1,46.85-55.7c2-2,4-3.9,6-5.83,2.66,2.6,5.27,5.06,7.78,7.61A443.51,443.51,0,0,1,356,263.22c12.92,22.85,21.55,47.32,27.23,72.87a386.82,386.82,0,0,1,7.82,52.8,468,468,0,0,1,.93,61.3C392,450.81,391.87,451.43,391.79,452.31Z"/>
  <path fill="currentColor" d="M278,127.43c-1,.63-1.89,1.23-2.81,1.85-47.36,32.1-84.16,73.51-109.9,124.65A365.44,365.44,0,0,0,135.76,337a421.15,421.15,0,0,0-7.56,43.64,464,464,0,0,0-2.86,70.81c0,.72,0,1.44,0,2.16a4,4,0,0,1-.3.75l-18.29.79a9.41,9.41,0,0,1-.32-1.47A391.35,391.35,0,0,1,106.9,407c.81-11.23,1.69-22.47,3.11-33.63a409.55,409.55,0,0,1,17.62-77.9C140.84,255.66,160,219,186,186.1c25.39-32.11,55.72-58.66,90.4-80.33a2.9,2.9,0,0,1,3.64.14c46.68,29.62,84.68,67.76,113.18,115.22,19.4,32.29,33.14,66.89,42.28,103.38a432.6,432.6,0,0,1,9.44,50.1,472.67,472.67,0,0,1,3.53,80.83c0,.54-.12,1.07-.21,1.81l-18.61-.79a12.78,12.78,0,0,1-.15-1.48,475.73,475.73,0,0,0-.83-52.46c-2.6-34.86-8.91-69-20-102.22-14-41.9-34.81-80-63.63-113.64a330.37,330.37,0,0,0-65.32-58.19C279.2,128.11,278.65,127.81,278,127.43Z"/>
</svg>
